<svg width="53" height="53" viewBox="0 0 53 53" fill="none" xmlns="http://www.w3.org/2000/svg">
<mask id="path-1-inside-1_9_8" fill="white">
<path d="M40 20.5H42.5C45.1522 20.5 47.6957 21.5536 49.5711 23.4289C51.4464 25.3043 52.5 27.8478 52.5 30.5C52.5 33.1522 51.4464 35.6957 49.5711 37.5711C47.6957 39.4464 45.1522 40.5 42.5 40.5H40"/>
</mask>
<path d="M40 15.5C37.2386 15.5 35 17.7386 35 20.5C35 23.2614 37.2386 25.5 40 25.5V15.5ZM42.5 20.5V15.5V20.5ZM42.5 40.5L42.5 45.5L42.5 40.5ZM40 35.5C37.2386 35.5 35 37.7386 35 40.5C35 43.2614 37.2386 45.5 40 45.5V35.5ZM40 25.5H42.5V15.5H40V25.5ZM42.5 25.5C43.8261 25.5 45.0978 26.0268 46.0355 26.9645L53.1066 19.8934C50.2936 17.0804 46.4782 15.5 42.5 15.5L42.5 25.5ZM46.0355 26.9645C46.9732 27.9021 47.5 29.1739 47.5 30.5H57.5C57.5 26.5218 55.9196 22.7064 53.1066 19.8934L46.0355 26.9645ZM47.5 30.5C47.5 31.8261 46.9732 33.0979 46.0355 34.0355L53.1066 41.1066C55.9196 38.2936 57.5 34.4782 57.5 30.5H47.5ZM46.0355 34.0355C45.0978 34.9732 43.8261 35.5 42.5 35.5L42.5 45.5C46.4782 45.5 50.2936 43.9196 53.1066 41.1066L46.0355 34.0355ZM42.5 35.5H40V45.5H42.5V35.5Z" fill="#FEDE59" mask="url(#path-1-inside-1_9_8)"/>
<path d="M2.5 23H37.5V43C37.5 44.9891 36.7098 46.8968 35.3033 48.3033C33.8968 49.7098 31.9891 50.5 30 50.5H10C8.01087 50.5 6.10322 49.7098 4.6967 48.3033C3.29018 46.8968 2.5 44.9891 2.5 43V23Z" stroke="#FEDE59" stroke-width="5" stroke-linecap="round" stroke-linejoin="round"/>
<path d="M10 3V10.5" stroke="#FEDE59" stroke-width="5" stroke-linecap="round" stroke-linejoin="round"/>
<path d="M20 3V10.5" stroke="#FEDE59" stroke-width="5" stroke-linecap="round" stroke-linejoin="round"/>
<path d="M30 3V10.5" stroke="#FEDE59" stroke-width="5" stroke-linecap="round" stroke-linejoin="round"/>
</svg>
